<svg width="48" height="56" viewBox="0 0 48 56" fill="none" xmlns="http://www.w3.org/2000/svg">
<path d="M42 24.3998H6.00002C4.0118 24.3998 2.40002 26.0116 2.40002 27.9998V49.5998C2.40002 51.588 4.0118 53.1998 6.00002 53.1998H42C43.9882 53.1998 45.6 51.588 45.6 49.5998V27.9998C45.6 26.0116 43.9883 24.3998 42 24.3998Z" fill="white"/>
<path d="M13.2 24.3998V13.5998C13.2 7.63513 18.0354 2.7998 24 2.7998C29.9647 2.7998 34.8 7.63513 34.8 13.5998V24.3998M6.00002 24.3998H42C43.9883 24.3998 45.6 26.0116 45.6 27.9998V49.5998C45.6 51.588 43.9882 53.1998 42 53.1998H6.00002C4.0118 53.1998 2.40002 51.588 2.40002 49.5998V27.9998C2.40002 26.0116 4.0118 24.3998 6.00002 24.3998Z" stroke="white" stroke-width="4"/>
</svg>
